<svg width="18" height="16" viewBox="0 0 18 16" fill="none" xmlns="http://www.w3.org/2000/svg">
<path id="Mask" fill-rule="evenodd" clip-rule="evenodd" d="M3.01196 4.25C3.01196 2.15 4.66854 0.5 6.77691 0.5C8.88528 0.5 10.5419 2.15 10.5419 4.25C10.5419 6.35 8.88528 8 6.77691 8C4.66854 8 3.01196 6.35 3.01196 4.25ZM13.5538 13.25V14.75C13.5538 15.2 13.2526 15.5 12.8008 15.5C12.349 15.5 12.0478 15.2 12.0478 14.75V13.25C12.0478 11.975 11.0689 11 9.78887 11H3.76495C2.48487 11 1.50598 11.975 1.50598 13.25V14.75C1.50598 15.2 1.20478 15.5 0.75299 15.5C0.301196 15.5 0 15.2 0 14.75V13.25C0 11.15 1.65658 9.5 3.76495 9.5H9.78887C11.8972 9.5 13.5538 11.15 13.5538 13.25ZM6.77691 6.5C5.49682 6.5 4.51794 5.525 4.51794 4.25C4.51794 2.975 5.49682 2 6.77691 2C8.05699 2 9.03588 2.975 9.03588 4.25C9.03588 5.525 8.05699 6.5 6.77691 6.5ZM15.2104 9.65C14.8339 9.575 14.3821 9.8 14.3068 10.175C14.2315 10.55 14.4574 11 14.8339 11.075C15.8128 11.3 16.4905 12.2 16.4905 13.25V14.75C16.4905 15.2 16.7917 15.5 17.2435 15.5C17.6953 15.5 17.9965 15.2 17.9965 14.75V13.25C18.0718 11.525 16.9423 10.025 15.2104 9.65ZM11.2948 1.175C11.4454 0.725 11.8219 0.5 12.1984 0.65C14.2315 1.1 15.4363 3.2 14.9092 5.3C14.608 6.65 13.5538 7.625 12.1984 8H12.0478C11.6713 8 11.3701 7.775 11.2948 7.4C11.1442 7.025 11.4454 6.575 11.8219 6.5C12.6502 6.275 13.2526 5.675 13.4785 4.85C13.7797 3.575 13.0267 2.375 11.8219 2.075C11.4454 2 11.2195 1.55 11.2948 1.175Z" fill="black"/>
</svg>
