<svg width="18" height="18" viewBox="0 0 18 18" fill="none" xmlns="http://www.w3.org/2000/svg">
<path id="Mask" fill-rule="evenodd" clip-rule="evenodd" d="M9.975 0.449609L15.975 3.44961C16.8 3.82461 17.25 4.57461 17.25 5.39961V12.5246C17.25 13.4246 16.725 14.1746 15.975 14.5496L9.975 17.5496C9.675 17.6996 9.375 17.7746 9 17.7746C8.7 17.7746 8.325 17.6996 8.025 17.5496L2.025 14.5496C1.2 14.1746 0.75 13.3496 0.75 12.5246V5.39961C0.75 4.57461 1.2 3.82461 1.95 3.44961L7.95 0.449609C8.625 0.149609 9.375 0.149609 9.975 0.449609ZM9 1.64961C8.925 1.64961 8.775 1.64961 8.7 1.72461L3.15 4.49961L9 7.42461L14.85 4.49961L9.3 1.72461C9.225 1.64961 9.15 1.64961 9 1.64961ZM2.625 13.2746C2.4 13.1246 2.25 12.8246 2.25 12.5996V5.69961L8.25 8.69961V16.0496L2.625 13.2746ZM9.75 16.0496L15.3 13.2746C15.6 13.1246 15.75 12.8996 15.75 12.5996V5.69961L9.75 8.69961V16.0496Z" fill="#5E5873"/>
</svg>
