<svg width="12" height="14" viewBox="0 0 12 14" fill="none" xmlns="http://www.w3.org/2000/svg">
<path id="Mask" fill-rule="evenodd" clip-rule="evenodd" d="M10.0834 1.7487H8.91675V1.16536C8.91675 0.815365 8.68341 0.582031 8.33341 0.582031C7.98341 0.582031 7.75008 0.815365 7.75008 1.16536V1.7487H4.25008V1.16536C4.25008 0.815365 4.01675 0.582031 3.66675 0.582031C3.31675 0.582031 3.08341 0.815365 3.08341 1.16536V1.7487H1.91675C0.925081 1.7487 0.166748 2.50703 0.166748 3.4987V11.6654C0.166748 12.657 0.925081 13.4154 1.91675 13.4154H10.0834C11.0751 13.4154 11.8334 12.657 11.8334 11.6654V3.4987C11.8334 2.50703 11.0751 1.7487 10.0834 1.7487ZM1.91675 2.91536H3.08341V3.4987C3.08341 3.8487 3.31675 4.08203 3.66675 4.08203C4.01675 4.08203 4.25008 3.8487 4.25008 3.4987V2.91536H7.75008V3.4987C7.75008 3.8487 7.98342 4.08203 8.33342 4.08203C8.68342 4.08203 8.91675 3.8487 8.91675 3.4987V2.91536H10.0834C10.4334 2.91536 10.6667 3.1487 10.6667 3.4987V5.2487H1.33341V3.4987C1.33341 3.1487 1.56675 2.91536 1.91675 2.91536ZM1.91675 12.2487H10.0834C10.4334 12.2487 10.6667 12.0154 10.6667 11.6654V6.41536H1.33341V11.6654C1.33341 12.0154 1.56675 12.2487 1.91675 12.2487Z" fill="#BABFC7"/>
</svg>
