<svg width="14" height="15" viewBox="0 0 14 15" fill="none" xmlns="http://www.w3.org/2000/svg">
<path fill-rule="evenodd" clip-rule="evenodd" d="M2.91683 9.83398C3.26683 9.83398 3.50016 9.60065 3.50016 9.25065C3.50016 8.90065 3.26683 8.66732 2.91683 8.66732H2.3335C1.9835 8.66732 1.75016 8.43398 1.75016 8.08398V2.83398C1.75016 2.48398 1.9835 2.25065 2.3335 2.25065H7.5835C7.9335 2.25065 8.16683 2.48398 8.16683 2.83398V3.41732C8.16683 3.76732 8.40016 4.00065 8.75016 4.00065C9.10016 4.00065 9.3335 3.76732 9.3335 3.41732V2.83398C9.3335 1.84232 8.57516 1.08398 7.5835 1.08398H2.3335C1.34183 1.08398 0.583496 1.84232 0.583496 2.83398V8.08398C0.583496 9.07565 1.34183 9.83398 2.3335 9.83398H2.91683ZM11.6668 5.16732H6.41683C5.42516 5.16732 4.66683 5.92565 4.66683 6.91732V12.1673C4.66683 13.159 5.42516 13.9173 6.41683 13.9173H11.6668C12.6585 13.9173 13.4168 13.159 13.4168 12.1673V6.91732C13.4168 5.92565 12.6585 5.16732 11.6668 5.16732ZM12.2502 12.1673C12.2502 12.5173 12.0168 12.7507 11.6668 12.7507H6.41683C6.06683 12.7507 5.8335 12.5173 5.8335 12.1673V6.91732C5.8335 6.56732 6.06683 6.33398 6.41683 6.33398H11.6668C12.0168 6.33398 12.2502 6.56732 12.2502 6.91732V12.1673Z" fill="black"/>
<mask id="mask0_7937_496851" style="mask-type:luminance" maskUnits="userSpaceOnUse" x="0" y="1" width="14" height="13">
<path fill-rule="evenodd" clip-rule="evenodd" d="M2.91683 9.83398C3.26683 9.83398 3.50016 9.60065 3.50016 9.25065C3.50016 8.90065 3.26683 8.66732 2.91683 8.66732H2.3335C1.9835 8.66732 1.75016 8.43398 1.75016 8.08398V2.83398C1.75016 2.48398 1.9835 2.25065 2.3335 2.25065H7.5835C7.9335 2.25065 8.16683 2.48398 8.16683 2.83398V3.41732C8.16683 3.76732 8.40016 4.00065 8.75016 4.00065C9.10016 4.00065 9.3335 3.76732 9.3335 3.41732V2.83398C9.3335 1.84232 8.57516 1.08398 7.5835 1.08398H2.3335C1.34183 1.08398 0.583496 1.84232 0.583496 2.83398V8.08398C0.583496 9.07565 1.34183 9.83398 2.3335 9.83398H2.91683ZM11.6668 5.16732H6.41683C5.42516 5.16732 4.66683 5.92565 4.66683 6.91732V12.1673C4.66683 13.159 5.42516 13.9173 6.41683 13.9173H11.6668C12.6585 13.9173 13.4168 13.159 13.4168 12.1673V6.91732C13.4168 5.92565 12.6585 5.16732 11.6668 5.16732ZM12.2502 12.1673C12.2502 12.5173 12.0168 12.7507 11.6668 12.7507H6.41683C6.06683 12.7507 5.8335 12.5173 5.8335 12.1673V6.91732C5.8335 6.56732 6.06683 6.33398 6.41683 6.33398H11.6668C12.0168 6.33398 12.2502 6.56732 12.2502 6.91732V12.1673Z" fill="white"/>
</mask>
<g mask="url(#mask0_7937_496851)">
<rect y="0.5" width="14" height="14" fill="#28C76F"/>
</g>
</svg>
