<svg width="13" height="14" viewBox="0 0 13 14" fill="none" xmlns="http://www.w3.org/2000/svg">
<path id="Mask" fill-rule="evenodd" clip-rule="evenodd" d="M11.7498 2.91732H9.4165V2.33398C9.4165 1.34232 8.65817 0.583984 7.6665 0.583984H5.33317C4.3415 0.583984 3.58317 1.34232 3.58317 2.33398V2.91732H1.24984C0.899837 2.91732 0.666504 3.15065 0.666504 3.50065C0.666504 3.85065 0.899837 4.08398 1.24984 4.08398H1.83317V11.6673C1.83317 12.659 2.5915 13.4173 3.58317 13.4173H9.4165C10.4082 13.4173 11.1665 12.659 11.1665 11.6673V4.08398H11.7498C12.0998 4.08398 12.3332 3.85065 12.3332 3.50065C12.3332 3.15065 12.0998 2.91732 11.7498 2.91732ZM4.74984 2.33398C4.74984 1.98398 4.98317 1.75065 5.33317 1.75065H7.6665C8.0165 1.75065 8.24984 1.98398 8.24984 2.33398V2.91732H4.74984V2.33398ZM9.4165 12.2507C9.7665 12.2507 9.99984 12.0173 9.99984 11.6673V4.08398H2.99984V11.6673C2.99984 12.0173 3.23317 12.2507 3.58317 12.2507H9.4165Z" fill="#EA5455"/>
</svg>
