<svg width="9" height="15" viewBox="0 0 9 15" fill="none" xmlns="http://www.w3.org/2000/svg">
<path id="Shape" fill-rule="evenodd" clip-rule="evenodd" d="M5.95817 6.91667H5.08317V4H7.4165C7.7665 4 7.99984 3.76667 7.99984 3.41667C7.99984 3.06667 7.7665 2.83333 7.4165 2.83333H5.08317V1.08333C5.08317 0.733333 4.84984 0.5 4.49984 0.5C4.14984 0.5 3.9165 0.733333 3.9165 1.08333V2.83333H3.0415C1.58317 2.83333 0.416504 4 0.416504 5.45833C0.416504 6.91667 1.58317 8.08333 3.0415 8.08333H3.9165V11H0.999837C0.649837 11 0.416504 11.2333 0.416504 11.5833C0.416504 11.9333 0.649837 12.1667 0.999837 12.1667H3.9165V13.9167C3.9165 14.2667 4.14984 14.5 4.49984 14.5C4.84984 14.5 5.08317 14.2667 5.08317 13.9167V12.1667H5.95817C7.4165 12.1667 8.58317 11 8.58317 9.54167C8.58317 8.08333 7.4165 6.91667 5.95817 6.91667ZM3.0415 6.91667C2.22484 6.91667 1.58317 6.275 1.58317 5.45833C1.58317 4.64167 2.22484 4 3.0415 4H3.9165V6.91667H3.0415ZM5.08317 11H5.95817C6.77484 11 7.4165 10.3583 7.4165 9.54167C7.4165 8.725 6.77484 8.08333 5.95817 8.08333H5.08317V11Z" fill="#6E6B7B"/>
</svg>
