<svg width="24" height="40" viewBox="0 0 24 40" fill="none" xmlns="http://www.w3.org/2000/svg">
<path id="Shape" fill-rule="evenodd" clip-rule="evenodd" d="M16.1668 18.3333H13.6668V10H20.3335C21.3335 10 22.0002 9.33333 22.0002 8.33333C22.0002 7.33333 21.3335 6.66667 20.3335 6.66667H13.6668V1.66667C13.6668 0.666667 13.0002 0 12.0002 0C11.0002 0 10.3335 0.666667 10.3335 1.66667V6.66667H7.8335C3.66683 6.66667 0.333496 10 0.333496 14.1667C0.333496 18.3333 3.66683 21.6667 7.8335 21.6667H10.3335V30H2.00016C1.00016 30 0.333496 30.6667 0.333496 31.6667C0.333496 32.6667 1.00016 33.3333 2.00016 33.3333H10.3335V38.3333C10.3335 39.3333 11.0002 40 12.0002 40C13.0002 40 13.6668 39.3333 13.6668 38.3333V33.3333H16.1668C20.3335 33.3333 23.6668 30 23.6668 25.8333C23.6668 21.6667 20.3335 18.3333 16.1668 18.3333ZM7.8335 18.3333C5.50016 18.3333 3.66683 16.5 3.66683 14.1667C3.66683 11.8333 5.50016 10 7.8335 10H10.3335V18.3333H7.8335ZM13.6668 30H16.1668C18.5002 30 20.3335 28.1667 20.3335 25.8333C20.3335 23.5 18.5002 21.6667 16.1668 21.6667H13.6668V30Z" fill="#28C76F"/>
</svg>
