<svg width="14" height="15" viewBox="0 0 14 15" fill="none" xmlns="http://www.w3.org/2000/svg">
    <path fill-rule="evenodd" clip-rule="evenodd" d="M6.7665 10.357C6.70817 10.357 6.64984 10.2987 6.5915 10.2404L4.25817 7.90703C4.02484 7.6737 4.02484 7.3237 4.25817 7.09036C4.4915 6.85703 4.8415 6.85703 5.07484 7.09036L6.4165 8.43203V1.66536C6.4165 1.31536 6.64984 1.08203 6.99984 1.08203C7.34984 1.08203 7.58317 1.31536 7.58317 1.66536V8.43203L8.92484 7.09036C9.15817 6.85703 9.50817 6.85703 9.7415 7.09036C9.97484 7.3237 9.97484 7.6737 9.7415 7.90703L7.40817 10.2404C7.379 10.2695 7.34984 10.2841 7.32067 10.2987C7.2915 10.3133 7.26234 10.3279 7.23317 10.357C7.17484 10.4154 7.05817 10.4154 6.99984 10.4154C6.9415 10.4154 6.82484 10.4154 6.7665 10.357ZM12.8332 12.1654V10.4154C12.8332 10.0654 12.5998 9.83203 12.2498 9.83203C11.8998 9.83203 11.6665 10.0654 11.6665 10.4154V12.1654C11.6665 12.5154 11.4332 12.7487 11.0832 12.7487H2.9165C2.5665 12.7487 2.33317 12.5154 2.33317 12.1654V10.4154C2.33317 10.0654 2.09984 9.83203 1.74984 9.83203C1.39984 9.83203 1.1665 10.0654 1.1665 10.4154V12.1654C1.1665 13.157 1.92484 13.9154 2.9165 13.9154H11.0832C12.0748 13.9154 12.8332 13.157 12.8332 12.1654Z" fill="black"/>
    <mask id="mask0_6965_316836" style="mask-type:luminance" maskUnits="userSpaceOnUse" x="1" y="1" width="12" height="13">
        <path fill-rule="evenodd" clip-rule="evenodd" d="M6.7665 10.357C6.70817 10.357 6.64984 10.2987 6.5915 10.2404L4.25817 7.90703C4.02484 7.6737 4.02484 7.3237 4.25817 7.09036C4.4915 6.85703 4.8415 6.85703 5.07484 7.09036L6.4165 8.43203V1.66536C6.4165 1.31536 6.64984 1.08203 6.99984 1.08203C7.34984 1.08203 7.58317 1.31536 7.58317 1.66536V8.43203L8.92484 7.09036C9.15817 6.85703 9.50817 6.85703 9.7415 7.09036C9.97484 7.3237 9.97484 7.6737 9.7415 7.90703L7.40817 10.2404C7.379 10.2695 7.34984 10.2841 7.32067 10.2987C7.2915 10.3133 7.26234 10.3279 7.23317 10.357C7.17484 10.4154 7.05817 10.4154 6.99984 10.4154C6.9415 10.4154 6.82484 10.4154 6.7665 10.357ZM12.8332 12.1654V10.4154C12.8332 10.0654 12.5998 9.83203 12.2498 9.83203C11.8998 9.83203 11.6665 10.0654 11.6665 10.4154V12.1654C11.6665 12.5154 11.4332 12.7487 11.0832 12.7487H2.9165C2.5665 12.7487 2.33317 12.5154 2.33317 12.1654V10.4154C2.33317 10.0654 2.09984 9.83203 1.74984 9.83203C1.39984 9.83203 1.1665 10.0654 1.1665 10.4154V12.1654C1.1665 13.157 1.92484 13.9154 2.9165 13.9154H11.0832C12.0748 13.9154 12.8332 13.157 12.8332 12.1654Z" fill="white"/>
    </mask>
    <g mask="url(#mask0_6965_316836)">
        <rect y="0.5" width="14" height="14" fill="#6E6B7B"/>
    </g>
</svg>
