<svg width="13" height="14" viewBox="0 0 13 14" fill="none" xmlns="http://www.w3.org/2000/svg">
<path id="Mask" fill-rule="evenodd" clip-rule="evenodd" d="M12.7418 3.90898L6.9085 9.74232C6.79183 9.85898 6.67516 9.91732 6.50016 9.91732H4.16683C3.81683 9.91732 3.5835 9.68398 3.5835 9.33398V7.00065C3.5835 6.82565 3.64183 6.70898 3.7585 6.59232L9.59183 0.758984C9.82516 0.525651 10.1752 0.525651 10.4085 0.758984L12.7418 3.09232C12.9752 3.32565 12.9752 3.67565 12.7418 3.90898ZM11.7502 8.57565V11.6673C11.7502 12.659 10.9918 13.4173 10.0002 13.4173H1.8335C0.841829 13.4173 0.0834961 12.659 0.0834961 11.6673V3.50065C0.0834961 2.50898 0.841829 1.75065 1.8335 1.75065H4.92516C5.27516 1.75065 5.5085 1.98398 5.5085 2.33398C5.5085 2.68398 5.27516 2.91732 4.92516 2.91732H1.8335C1.4835 2.91732 1.25016 3.15065 1.25016 3.50065V11.6673C1.25016 12.0173 1.4835 12.2507 1.8335 12.2507H10.0002C10.3502 12.2507 10.5835 12.0173 10.5835 11.6673V8.57565C10.5835 8.22565 10.8168 7.99232 11.1668 7.99232C11.5168 7.99232 11.7502 8.22565 11.7502 8.57565ZM10.0002 1.98398L11.5168 3.50065L6.26683 8.75065H4.75016V7.23398L10.0002 1.98398Z" fill="#6E6B7B"/>
</svg>
