<svg width="18" height="15" viewBox="0 0 18 15" fill="none" xmlns="http://www.w3.org/2000/svg">
<path id="Mask" fill-rule="evenodd" clip-rule="evenodd" d="M15 0.75H3C1.725 0.75 0.75 1.725 0.75 3V12C0.75 13.275 1.725 14.25 3 14.25H15C16.275 14.25 17.25 13.275 17.25 12V3C17.25 1.725 16.275 0.75 15 0.75ZM3 2.25H15C15.3 2.25 15.525 2.4 15.675 2.7L9 7.35L2.325 2.7C2.475 2.4 2.7 2.25 3 2.25ZM2.25 12C2.25 12.45 2.55 12.75 3 12.75H15C15.45 12.75 15.75 12.45 15.75 12V4.425L9.45 8.85C9.3 8.925 9.15 9 9 9C8.85 9 8.7 8.925 8.55 8.85L2.25 4.425V12Z" fill="#626CC6"/>
</svg>
