<svg width="74" height="74" viewBox="0 0 74 74" fill="none" xmlns="http://www.w3.org/2000/svg">
<path id="Mask" fill-rule="evenodd" clip-rule="evenodd" d="M0.333496 37.0006C0.333496 57.334 16.6668 73.6673 37.0002 73.6673C57.3335 73.6673 73.6668 57.334 73.6668 37.0006C73.6668 16.6673 57.3335 0.333984 37.0002 0.333984C16.6668 0.333984 0.333496 16.6673 0.333496 37.0006ZM7.00016 37.0006C7.00016 20.334 20.3335 7.00065 37.0002 7.00065C53.6668 7.00065 67.0002 20.334 67.0002 37.0006C67.0002 53.6673 53.6668 67.0006 37.0002 67.0006C20.3335 67.0006 7.00016 53.6673 7.00016 37.0006ZM40.3335 37.0007V23.6673C40.3335 21.6673 39.0002 20.334 37.0002 20.334C35.0002 20.334 33.6668 21.6673 33.6668 23.6673V37.0007C33.6668 39.0007 35.0002 40.334 37.0002 40.334C39.0002 40.334 40.3335 39.0007 40.3335 37.0007ZM40.0002 51.6673C40.0002 52.0006 39.6669 52.334 39.3336 52.6673C38.6669 53.334 38.0002 53.6673 36.6669 53.6673C35.6669 53.6673 35.0002 53.334 34.3336 52.6673C33.6669 52.0006 33.3336 51.334 33.3336 50.334C33.3336 49.9434 33.4479 49.6673 33.5427 49.4385C33.6097 49.2768 33.6669 49.1387 33.6669 49.0006C33.6669 48.6673 34.0002 48.334 34.3335 48.0007L34.3336 48.0006C35.3336 47.0006 36.6669 46.6673 38.0002 47.334C38.1669 47.334 38.2502 47.4173 38.3336 47.5006C38.4169 47.584 38.5002 47.6673 38.6669 47.6673C39.0002 47.6673 39.3336 48.0006 39.3336 48.0006C39.5002 48.1673 39.5835 48.334 39.6669 48.5006C39.7502 48.6673 39.8336 48.834 40.0002 49.0006C40.3336 49.334 40.3336 50.0006 40.3336 50.334C40.3336 50.5006 40.2502 50.7506 40.1669 51.0006C40.0836 51.2506 40.0002 51.5006 40.0002 51.6673Z" fill="#FF9F43"/>
</svg>
