<svg width="12" height="13" viewBox="0 0 12 13" fill="none" xmlns="http://www.w3.org/2000/svg">
<path id="Mask" fill-rule="evenodd" clip-rule="evenodd" d="M11.4832 0.724349C11.5998 0.782682 11.7165 0.899349 11.7748 1.01602C11.8332 1.07435 11.8332 1.19102 11.8332 1.24935V4.74935C11.8332 5.09935 11.5998 5.33268 11.2498 5.33268C10.8998 5.33268 10.6665 5.09935 10.6665 4.74935V2.64935L5.2415 8.07435C5.12484 8.19102 5.00817 8.24935 4.83317 8.24935C4.65817 8.24935 4.5415 8.19102 4.42484 8.07435C4.1915 7.84102 4.1915 7.49102 4.42484 7.25768L9.84984 1.83268H7.74984C7.39984 1.83268 7.1665 1.59935 7.1665 1.24935C7.1665 0.899349 7.39984 0.666016 7.74984 0.666016H11.2498C11.3082 0.666016 11.4248 0.666016 11.4832 0.724349ZM10.0832 10.5827V7.08268C10.0832 6.73268 9.84984 6.49935 9.49984 6.49935C9.14984 6.49935 8.9165 6.73268 8.9165 7.08268V10.5827C8.9165 10.9327 8.68317 11.166 8.33317 11.166H1.9165C1.5665 11.166 1.33317 10.9327 1.33317 10.5827V4.16602C1.33317 3.81602 1.5665 3.58268 1.9165 3.58268H5.4165C5.7665 3.58268 5.99984 3.34935 5.99984 2.99935C5.99984 2.64935 5.7665 2.41602 5.4165 2.41602H1.9165C0.924837 2.41602 0.166504 3.17435 0.166504 4.16602V10.5827C0.166504 11.5743 0.924837 12.3327 1.9165 12.3327H8.33317C9.32484 12.3327 10.0832 11.5743 10.0832 10.5827Z" fill="#626CC6"/>
</svg>
