<svg width="18" height="18" viewBox="0 0 18 18" fill="none" xmlns="http://www.w3.org/2000/svg">
<path d="M10.5 2.25V5.25C10.5 5.66421 10.8358 6 11.25 6H14.25" stroke="#EA5455" stroke-width="1.5" stroke-linecap="round" stroke-linejoin="round"/>
<path fill-rule="evenodd" clip-rule="evenodd" d="M12.75 15.75H5.25C4.42157 15.75 3.75 15.0784 3.75 14.25V3.75C3.75 2.92157 4.42157 2.25 5.25 2.25H10.5L14.25 6V14.25C14.25 15.0784 13.5784 15.75 12.75 15.75Z" stroke="#EA5455" stroke-width="1.5" stroke-linecap="round" stroke-linejoin="round"/>
<path d="M8.03033 8.46967C7.73744 8.17678 7.26256 8.17678 6.96967 8.46967C6.67678 8.76256 6.67678 9.23744 6.96967 9.53033L8.03033 8.46967ZM9.96967 12.5303C10.2626 12.8232 10.7374 12.8232 11.0303 12.5303C11.3232 12.2374 11.3232 11.7626 11.0303 11.4697L9.96967 12.5303ZM11.0303 9.53033C11.3232 9.23744 11.3232 8.76256 11.0303 8.46967C10.7374 8.17678 10.2626 8.17678 9.96967 8.46967L11.0303 9.53033ZM6.96967 11.4697C6.67678 11.7626 6.67678 12.2374 6.96967 12.5303C7.26256 12.8232 7.73744 12.8232 8.03033 12.5303L6.96967 11.4697ZM6.96967 9.53033L9.96967 12.5303L11.0303 11.4697L8.03033 8.46967L6.96967 9.53033ZM9.96967 8.46967L6.96967 11.4697L8.03033 12.5303L11.0303 9.53033L9.96967 8.46967Z" fill="#EA5455"/>
</svg>
