<svg width="38" height="39" viewBox="0 0 38 39" fill="none" xmlns="http://www.w3.org/2000/svg">
<g id="Google">
<rect id="background" y="0.5" width="38" height="38" rx="6" fill="#DB4437" fill-opacity="0.16"/>
<path id="Vector" d="M26.6883 18.0011C24.1789 17.9999 21.6694 18.0005 19.16 18.0008C19.1603 19.0416 19.1588 20.0825 19.1606 21.123C20.6139 21.1227 22.0672 21.1224 23.5202 21.123C23.3518 22.1204 22.759 23.0325 21.9185 23.594C21.3901 23.9493 20.783 24.1799 20.1571 24.2895C19.5272 24.397 18.8763 24.4108 18.2479 24.2836C17.6089 24.1561 16.999 23.8899 16.4668 23.5146C15.616 22.9168 14.9667 22.0422 14.6333 21.0579C14.2924 20.0568 14.2899 18.9428 14.6348 17.9426C14.8742 17.2377 15.2726 16.5865 15.7959 16.0566C16.4415 15.3957 17.2808 14.9233 18.1851 14.7295C18.9594 14.5642 19.7758 14.5958 20.5339 14.8251C21.1782 15.0208 21.7722 15.3738 22.2588 15.8385C22.7506 15.3494 23.2399 14.8576 23.7308 14.3677C23.9883 14.104 24.2589 13.8518 24.5082 13.5809C23.7627 12.891 22.8887 12.3363 21.9338 11.9857C20.2146 11.353 18.2757 11.3396 16.5449 11.9386C14.5945 12.6064 12.9337 14.065 12.0129 15.9085C11.6923 16.5438 11.4583 17.2218 11.3177 17.9193C10.9639 19.6569 11.2105 21.5095 12.012 23.0922C12.5329 24.1252 13.2796 25.0435 14.1855 25.7635C15.0401 26.445 16.0363 26.9483 17.0924 27.2293C18.4251 27.5867 19.8437 27.5786 21.1851 27.2733C22.3975 26.9943 23.5446 26.415 24.4604 25.5694C25.4285 24.6798 26.119 23.5077 26.4846 22.2482C26.8833 20.8743 26.9383 19.4075 26.6883 18.0011Z" fill="#DB4437"/>
</g>
</svg>
