<svg width="12" height="13" viewBox="0 0 12 13" fill="none" xmlns="http://www.w3.org/2000/svg">
<path id="Mask" fill-rule="evenodd" clip-rule="evenodd" d="M11.5998 4.29378L6.34984 0.215085C6.1165 0.040284 5.82484 0.040284 5.64984 0.215085L0.399837 4.29378C0.224837 4.41032 0.166504 4.58512 0.166504 4.75992V11.1693C0.166504 12.1598 0.924837 12.9173 1.9165 12.9173H10.0832C11.0748 12.9173 11.8332 12.1598 11.8332 11.1693V4.75992C11.8332 4.58512 11.7748 4.41032 11.5998 4.29378ZM7.1665 7.09061V11.752H4.83317V7.09061H7.1665ZM10.0832 11.752C10.4332 11.752 10.6665 11.5189 10.6665 11.1693V5.05126L5.99984 1.43869L1.33317 5.05126V11.1693C1.33317 11.5189 1.5665 11.752 1.9165 11.752H3.6665V6.50793C3.6665 6.15833 3.89984 5.92526 4.24984 5.92526H7.74984C8.09984 5.92526 8.33317 6.15833 8.33317 6.50793V11.752H10.0832Z" fill="#626CC6"/>
</svg>
