<svg width="74" height="74" viewBox="0 0 74 74" fill="none" xmlns="http://www.w3.org/2000/svg">
<path id="Mask" fill-rule="evenodd" clip-rule="evenodd" d="M71.5571 27.6654C69.8694 25.6654 67.5065 23.9987 64.8061 23.6654H63.1183H47.5909V13.6654C47.5909 6.33203 41.5149 0.332031 34.0888 0.332031C32.7386 0.332031 31.3883 0.998698 31.0508 2.33203L18.5613 30.332H10.4601C4.72168 30.332 0.333496 34.6654 0.333496 40.332V63.6654C0.333496 69.332 4.72168 73.6654 10.4601 73.6654H58.7301C63.7934 73.6654 67.844 69.9987 68.8567 65.332L73.5824 35.332C73.92 32.6654 73.2449 29.9987 71.5571 27.6654ZM17.2111 66.9987H10.4601C8.43476 66.9987 7.08455 65.6654 7.08455 63.6654V40.332C7.08455 38.332 8.43476 36.9987 10.4601 36.9987H17.2111V66.9987ZM58.7301 66.9987C60.4179 66.9987 61.7681 65.9987 62.1056 64.332L67.1689 33.9987C67.1689 33.332 67.1689 32.332 66.4938 31.6654C65.8187 30.9987 65.1436 30.332 64.131 30.332H63.4559H44.2154C42.19 30.332 40.8398 28.9987 40.8398 26.9987V13.6654C40.8398 10.6654 38.8145 8.33203 36.1141 7.33203L23.9622 34.332V66.9987H58.7301Z" fill="black"/>
</svg>
