<svg width="16" height="18" viewBox="0 0 16 18" fill="none" xmlns="http://www.w3.org/2000/svg">
<path id="Mask" fill-rule="evenodd" clip-rule="evenodd" d="M0.5 7.5C0.5 3.375 3.875 0 8 0C12.125 0 15.5 3.375 15.5 7.5C15.5 13.05 8.675 17.7 8.45 17.85C8.3 17.925 8.15 18 8 18C7.85 18 7.7 17.925 7.55 17.85C7.325 17.7 0.5 13.05 0.5 7.5ZM2 7.5C2 11.55 6.575 15.3 8 16.35C9.425 15.3 14 11.55 14 7.5C14 4.2 11.3 1.5 8 1.5C4.7 1.5 2 4.2 2 7.5ZM8 4.5C6.35 4.5 5 5.85 5 7.5C5 9.15 6.35 10.5 8 10.5C9.65 10.5 11 9.15 11 7.5C11 5.85 9.65 4.5 8 4.5ZM6.5 7.5C6.5 8.325 7.175 9 8 9C8.825 9 9.5 8.325 9.5 7.5C9.5 6.675 8.825 6 8 6C7.175 6 6.5 6.675 6.5 7.5Z" fill="#5E5873"/>
</svg>
