<svg width="16" height="18" viewBox="0 0 16 18" fill="none" xmlns="http://www.w3.org/2000/svg">
<path id="Mask" fill-rule="evenodd" clip-rule="evenodd" d="M13.25 7.5H12.5V5.25C12.5 2.775 10.475 0.75 8 0.75C5.525 0.75 3.5 2.775 3.5 5.25V7.5H2.75C1.475 7.5 0.5 8.475 0.5 9.75V15C0.5 16.275 1.475 17.25 2.75 17.25H13.25C14.525 17.25 15.5 16.275 15.5 15V9.75C15.5 8.475 14.525 7.5 13.25 7.5ZM5 5.25C5 3.6 6.35 2.25 8 2.25C9.65 2.25 11 3.6 11 5.25V7.5H5V5.25ZM13.25 15.75C13.7 15.75 14 15.45 14 15V9.75C14 9.3 13.7 9 13.25 9H2.75C2.3 9 2 9.3 2 9.75V15C2 15.45 2.3 15.75 2.75 15.75H13.25Z" fill="#626CC6"/>
</svg>
