<svg width="77" height="74" viewBox="0 0 77 74" fill="none" xmlns="http://www.w3.org/2000/svg">
<path id="Mask" fill-rule="evenodd" clip-rule="evenodd" d="M73.6668 37.0006V34.0006C73.6668 32.0006 72.3335 30.6673 70.3335 30.6673C68.3335 30.6673 67.0002 32.0006 67.0002 34.0006V37.0006C67.0002 53.6673 53.6668 67.0006 37.0002 67.0006C20.3335 67.0006 7.00016 53.6673 7.00016 37.0006C7.00016 20.334 20.3335 7.00065 37.0002 7.00065C41.3335 7.00065 45.3335 8.00065 49.3335 9.66732C51.0002 10.334 53.0002 9.66732 53.6668 8.00065C54.3335 6.33398 53.6668 4.33398 52.0002 3.66732C47.3335 1.33398 42.0002 0.333984 37.0002 0.333984C16.6668 0.333984 0.333496 16.6673 0.333496 37.0006C0.333496 57.334 16.6668 73.6673 37.0002 73.6673C57.3335 73.6673 73.6668 57.334 73.6668 37.0006ZM71.3335 4.66732C72.6668 3.33398 74.6668 3.33398 76.0002 4.66732C77.3335 6.00065 77.3335 8.00065 76.0002 9.33398L39.3335 46.0006C38.6668 46.6673 37.6668 47.0006 37.0002 47.0006C36.3335 47.0006 35.3335 46.6673 34.6668 46.0006L24.6668 36.0006C23.3335 34.6673 23.3335 32.6673 24.6668 31.334C26.0002 30.0007 28.0002 30.0007 29.3335 31.334L37.0002 39.0007L71.3335 4.66732Z" fill="#5E5873"/>
</svg>
