<svg width="18" height="18" viewBox="0 0 18 18" fill="none" xmlns="http://www.w3.org/2000/svg">
    <mask id="mask0_5437_604400" style="mask-type:alpha" maskUnits="userSpaceOnUse" x="2" y="2" width="14" height="14">
        <path d="M8.5 13.2812C8.21875 13.5938 7.75 13.5938 7.46875 13.2812L5.71875 11.5312C5.40625 11.25 5.40625 10.7812 5.71875 10.4688C6 10.1875 6.46875 10.1875 6.75 10.4688L8 11.7188L10.9688 8.71875C11.25 8.4375 11.7188 8.4375 12 8.71875C12.3125 9.03125 12.3125 9.5 12 9.78125L8.5 13.2812ZM15.8125 6.125C15.9375 6.375 16 6.65625 16 6.9375V14C16 15.125 15.0938 16 14 16H4C2.875 16 2 15.125 2 14V6.9375C2 6.65625 2.03125 6.375 2.15625 6.125L3.46875 3.21875C3.78125 2.46875 4.5 2 5.28125 2H12.6875C13.4688 2 14.1875 2.46875 14.5 3.21875L15.8125 6.125ZM9.75 6H14.125L13.1562 3.8125C13.0625 3.625 12.875 3.5 12.6875 3.5H9.75V6ZM3.5 14C3.5 14.2812 3.71875 14.5 4 14.5H14C14.25 14.5 14.5 14.2812 14.5 14V7.5H3.5V14ZM8.25 3.5H5.28125C5.09375 3.5 4.90625 3.625 4.8125 3.8125L3.84375 6H8.25V3.5Z" fill="#1C1C1E"/>
    </mask>
    <g mask="url(#mask0_5437_604400)">
        <rect width="18" height="18" fill="#28C76F"/>
    </g>
</svg>
