<svg width="14" height="15" viewBox="0 0 14 15" fill="none" xmlns="http://www.w3.org/2000/svg">
    <mask id="mask0_6965_316847" style="mask-type:alpha" maskUnits="userSpaceOnUse" x="2" y="0" width="11" height="15">
        <path d="M8.15625 9.62891L9.22266 8.53516C9.46875 8.28906 9.87891 8.28906 10.125 8.53516C10.3984 8.80859 10.3984 9.21875 10.125 9.46484L7.9375 11.6523C7.69141 11.9258 7.28125 11.9258 7.03516 11.6523L4.84766 9.46484C4.57422 9.21875 4.57422 8.80859 4.84766 8.53516C4.95703 8.42578 5.12109 8.34375 5.3125 8.34375C5.47656 8.34375 5.64062 8.42578 5.75 8.53516L6.84375 9.62891V6.8125C6.84375 6.45703 7.11719 6.15625 7.5 6.15625C7.85547 6.15625 8.15625 6.45703 8.15625 6.8125V9.62891ZM12.2305 2.82031C12.5586 3.14844 12.75 3.58594 12.75 4.05078V12.5C12.75 13.4844 11.957 14.25 11 14.25H4C3.01562 14.25 2.25 13.4844 2.25 12.5V2C2.25 1.04297 3.01562 0.25 4 0.25H8.94922C9.41406 0.25 9.85156 0.441406 10.1797 0.769531L12.2305 2.82031ZM11.4375 12.5H11.4102V4.625H9.25C8.75781 4.625 8.375 4.24219 8.375 3.75V1.58984H4C3.75391 1.58984 3.5625 1.78125 3.5625 2.02734V12.5C3.5625 12.7461 3.75391 12.9375 4 12.9375H11C11.2188 12.9375 11.4375 12.7461 11.4375 12.5Z" fill="#1C1C1E"/>
    </mask>
    <g mask="url(#mask0_6965_316847)">
        <rect y="0.5" width="14" height="14" fill="#6E6B7B"/>
    </g>
</svg>
