<svg width="18" height="17" viewBox="0 0 18 17" fill="none" xmlns="http://www.w3.org/2000/svg">
<path id="Mask" fill-rule="evenodd" clip-rule="evenodd" d="M13.3322 9.51712C13.9349 9.74315 14.613 9.89384 15.2911 9.96918C16.4212 10.1199 17.25 11.0993 17.25 12.2295V14.4897C17.25 15.0925 16.9486 15.6199 16.5719 16.0719C16.1952 16.524 15.5925 16.75 14.9897 16.75H14.7637C12.3527 16.524 9.94178 15.6952 7.90753 14.339C6.02397 13.1336 4.36644 11.476 3.16096 9.59247C1.88014 7.55822 0.976027 5.14726 0.75 2.7363C0.75 2.13356 0.900685 1.53082 1.2774 1.07877C1.65411 0.626712 2.18151 0.325342 2.78425 0.25H3.01027H5.27055C6.40068 0.25 7.38014 1.07877 7.53082 2.2089C7.60616 2.88699 7.75685 3.56507 7.98288 4.16781C8.28425 4.99658 8.05822 5.97603 7.45548 6.57877L6.92808 7.10616C7.83219 8.53767 9.03767 9.66781 10.3938 10.5719L10.9212 10.0445C11.5993 9.44178 12.5034 9.21575 13.3322 9.51712ZM15.7432 14.4897V12.2295C15.7432 11.8527 15.4418 11.5514 15.1404 11.476L15.1404 11.476C14.387 11.3253 13.6336 11.1747 12.8801 10.8733C12.5788 10.7226 12.2774 10.7979 12.0514 11.024L11.0719 12.0034C10.8459 12.3048 10.4692 12.3048 10.1678 12.1541C8.13356 11.024 6.47603 9.36644 5.34589 7.33219C5.19521 7.03082 5.27055 6.65411 5.49658 6.42808L6.47603 5.52397C6.62671 5.29795 6.70205 4.99658 6.62671 4.69521C6.32534 4.01712 6.09932 3.18836 6.02397 2.43493C5.94863 2.05822 5.64726 1.75685 5.27055 1.75685H3.01027C2.78425 1.75685 2.55822 1.90753 2.40753 2.05822C2.33219 2.2089 2.25685 2.35959 2.25685 2.58562C2.48288 4.77055 3.2363 6.88014 4.44178 8.7637C5.57192 10.4966 7.00343 12.0034 8.7363 13.0582C10.6199 14.2637 12.7295 15.0171 14.9144 15.2432C15.2158 15.2432 15.3664 15.1678 15.5171 15.0171C15.6678 14.8664 15.7432 14.7158 15.7432 14.4897Z" fill="#626CC6"/>
</svg>
