<svg width="40" height="40" viewBox="0 0 40 40" fill="none" xmlns="http://www.w3.org/2000/svg">
    <mask id="mask0_5629_399998" style="mask-type:alpha" maskUnits="userSpaceOnUse" x="1" y="2" width="39" height="35">
        <path d="M5.625 33.7305H18.7734L18.4414 35.125C18.3086 35.7227 18.3086 36.3867 18.5078 36.918H5.625C3.23438 36.918 1.375 35.0586 1.375 32.668V7.16797C1.375 4.84375 3.23438 2.91797 5.625 2.91797H16.582C17.7109 2.91797 18.7734 3.38281 19.5703 4.17969L25.6133 10.2227C26.4102 11.0195 26.875 12.082 26.875 13.2109V22.8398L23.6875 26.0273V13.543H18.375C17.1797 13.543 16.25 12.6133 16.25 11.418V6.10547H5.625C5.02734 6.10547 4.5625 6.63672 4.5625 7.16797V32.668C4.5625 33.2656 5.02734 33.7305 5.625 33.7305ZM38.8281 19.5859C39.8242 20.582 39.8242 22.2422 38.8281 23.3047L36.8359 25.2969L32.1211 20.582L34.1133 18.5898C35.1094 17.5938 36.8359 17.5938 37.832 18.5898L38.8281 19.5859ZM22.0273 30.6094L30.6602 22.043L35.375 26.7578L26.7422 35.3242C26.4766 35.5898 26.1445 35.7891 25.8125 35.9219L21.7617 36.918C21.4297 36.9844 21.0312 36.918 20.7656 36.6523C20.5 36.3867 20.4336 35.9883 20.5 35.5898L21.4961 31.6055C21.5625 31.2734 21.7617 30.9414 22.0273 30.6094Z" fill="#1C1C1E"/>
    </mask>
    <g mask="url(#mask0_5629_399998)">
        <rect width="40" height="40" fill="#626CC6"/>
    </g>
</svg>
