<svg width="14" height="15" viewBox="0 0 14 15" fill="none" xmlns="http://www.w3.org/2000/svg">
    <path d="M9.43332 12.9841C8.78864 13.2178 8.14395 13.3346 7.49926 13.3346C5.09632 13.3346 2.81061 11.8154 1.99009 9.4198C1.87288 9.12765 2.0487 8.77707 2.34174 8.66021C2.63478 8.54335 2.98643 8.71864 3.10365 9.01079C3.98277 11.4649 6.62013 12.7503 9.08168 11.8739C11.5432 10.9974 12.8326 8.36806 11.9535 5.91398C11.5432 4.74537 10.6641 3.81049 9.55054 3.22618C8.43699 2.70031 7.14761 2.64188 5.97544 3.05089C5.33076 3.28461 4.68607 3.6352 4.2172 4.16107L2.51756 5.73869H4.56885C4.9205 5.73869 5.15493 5.97241 5.15493 6.32299C5.15493 6.67358 4.9205 6.9073 4.56885 6.9073H1.05236C0.993753 6.9073 0.935145 6.9073 0.935145 6.9073H0.876537L0.817929 6.84887C0.759321 6.84887 0.759321 6.79044 0.700712 6.79044C0.700712 6.79044 0.700712 6.73201 0.642104 6.73201C0.642104 6.67357 0.583496 6.67357 0.583496 6.61514C0.583496 6.55671 0.583496 6.49828 0.583496 6.49828V6.43985V2.81717C0.583496 2.46659 0.817929 2.23287 1.16958 2.23287C1.52123 2.23287 1.75566 2.46659 1.75566 2.81717V4.97909L3.5139 3.34305C4.09998 2.75874 4.86189 2.2913 5.6824 1.99915C7.14761 1.47327 8.73003 1.59013 10.1366 2.23287C11.5432 2.93403 12.5982 4.10264 13.1256 5.5634C14.122 8.60178 12.4809 11.9323 9.43332 12.9841Z" fill="FF9F43"/>
    <mask id="mask0_6965_316853" style="mask-type:luminance" maskUnits="userSpaceOnUse" x="0" y="1" width="14" height="13">
        <path d="M9.43332 12.9841C8.78864 13.2178 8.14395 13.3346 7.49926 13.3346C5.09632 13.3346 2.81061 11.8154 1.99009 9.4198C1.87288 9.12765 2.0487 8.77707 2.34174 8.66021C2.63478 8.54335 2.98643 8.71864 3.10365 9.01079C3.98277 11.4649 6.62013 12.7503 9.08168 11.8739C11.5432 10.9974 12.8326 8.36806 11.9535 5.91398C11.5432 4.74537 10.6641 3.81049 9.55054 3.22618C8.43699 2.70031 7.14761 2.64188 5.97544 3.05089C5.33076 3.28461 4.68607 3.6352 4.2172 4.16107L2.51756 5.73869H4.56885C4.9205 5.73869 5.15493 5.97241 5.15493 6.32299C5.15493 6.67358 4.9205 6.9073 4.56885 6.9073H1.05236C0.993753 6.9073 0.935145 6.9073 0.935145 6.9073H0.876537L0.817929 6.84887C0.759321 6.84887 0.759321 6.79044 0.700712 6.79044C0.700712 6.79044 0.700712 6.73201 0.642104 6.73201C0.642104 6.67357 0.583496 6.67357 0.583496 6.61514C0.583496 6.55671 0.583496 6.49828 0.583496 6.49828V6.43985V2.81717C0.583496 2.46659 0.817929 2.23287 1.16958 2.23287C1.52123 2.23287 1.75566 2.46659 1.75566 2.81717V4.97909L3.5139 3.34305C4.09998 2.75874 4.86189 2.2913 5.6824 1.99915C7.14761 1.47327 8.73003 1.59013 10.1366 2.23287C11.5432 2.93403 12.5982 4.10264 13.1256 5.5634C14.122 8.60178 12.4809 11.9323 9.43332 12.9841Z" fill="white"/>
    </mask>
    <g mask="url(#mask0_6965_316853)">
        <rect y="0.5" width="14" height="14" fill="#FF9F43"/>
    </g>
</svg>
