<svg width="23" height="23" viewBox="0 0 23 23" fill="none" xmlns="http://www.w3.org/2000/svg">
<path fill-rule="evenodd" clip-rule="evenodd" d="M10.1311 4.45725C10.5216 2.84758 12.8114 2.84758 13.2019 4.45725C13.3208 4.94772 13.6667 5.35194 14.1329 5.5451C14.5992 5.73826 15.1296 5.69713 15.5605 5.43442C16.9749 4.57275 18.5947 6.19158 17.733 7.60692C17.4707 8.03762 17.4296 8.56766 17.6226 9.0336C17.8155 9.49954 18.2192 9.84542 18.7093 9.96458C20.3189 10.3551 20.3189 12.6449 18.7093 13.0354C18.2188 13.1543 17.8146 13.5002 17.6214 13.9664C17.4282 14.4327 17.4694 14.9631 17.7321 15.394C18.5938 16.8084 16.9749 18.4282 15.5596 17.5665C15.1289 17.3042 14.5988 17.2631 14.1329 17.4561C13.667 17.649 13.3211 18.0527 13.2019 18.5428C12.8114 20.1524 10.5216 20.1524 10.1311 18.5428C10.0122 18.0523 9.66631 17.6481 9.20007 17.4549C8.73384 17.2617 8.20339 17.3029 7.7725 17.5656C6.35809 18.4272 4.73834 16.8084 5.6 15.3931C5.86234 14.9624 5.90337 14.4323 5.71044 13.9664C5.5175 13.5005 5.11378 13.1546 4.62375 13.0354C3.01409 12.6449 3.01409 10.3551 4.62375 9.96458C5.11422 9.84574 5.51844 9.4998 5.7116 9.03357C5.90477 8.56734 5.86364 8.03689 5.60092 7.606C4.73925 6.19158 6.35809 4.57183 7.77342 5.4335C8.69009 5.99083 9.87809 5.49767 10.1311 4.45725Z" stroke="#4B465C" stroke-width="1.5" stroke-linecap="round" stroke-linejoin="round"/>
<path fill-rule="evenodd" clip-rule="evenodd" d="M10.1311 4.45725C10.5216 2.84758 12.8114 2.84758 13.2019 4.45725C13.3208 4.94772 13.6667 5.35194 14.1329 5.5451C14.5992 5.73826 15.1296 5.69713 15.5605 5.43442C16.9749 4.57275 18.5947 6.19158 17.733 7.60692C17.4707 8.03762 17.4296 8.56766 17.6226 9.0336C17.8155 9.49954 18.2192 9.84542 18.7093 9.96458C20.3189 10.3551 20.3189 12.6449 18.7093 13.0354C18.2188 13.1543 17.8146 13.5002 17.6214 13.9664C17.4282 14.4327 17.4694 14.9631 17.7321 15.394C18.5938 16.8084 16.9749 18.4282 15.5596 17.5665C15.1289 17.3042 14.5988 17.2631 14.1329 17.4561C13.667 17.649 13.3211 18.0527 13.2019 18.5428C12.8114 20.1524 10.5216 20.1524 10.1311 18.5428C10.0122 18.0523 9.66631 17.6481 9.20007 17.4549C8.73384 17.2617 8.20339 17.3029 7.7725 17.5656C6.35809 18.4272 4.73834 16.8084 5.6 15.3931C5.86234 14.9624 5.90337 14.4323 5.71044 13.9664C5.5175 13.5005 5.11378 13.1546 4.62375 13.0354C3.01409 12.6449 3.01409 10.3551 4.62375 9.96458C5.11422 9.84574 5.51844 9.4998 5.7116 9.03357C5.90477 8.56734 5.86364 8.03689 5.60092 7.606C4.73925 6.19158 6.35809 4.57183 7.77342 5.4335C8.69009 5.99083 9.87809 5.49767 10.1311 4.45725Z" stroke="white" stroke-opacity="0.2" stroke-width="1.5" stroke-linecap="round" stroke-linejoin="round"/>
<circle cx="11.6665" cy="11.5" r="2.75" stroke="#4B465C" stroke-width="1.5" stroke-linecap="round" stroke-linejoin="round"/>
<circle cx="11.6665" cy="11.5" r="2.75" stroke="white" stroke-opacity="0.2" stroke-width="1.5" stroke-linecap="round" stroke-linejoin="round"/>
</svg>
