<svg width="15" height="24" viewBox="0 0 15 24" fill="none" xmlns="http://www.w3.org/2000/svg">
<path d="M11.4084 15.6577L7.90835 19.1577C7.79169 19.2743 7.67502 19.3327 7.50002 19.3327C7.32502 19.3327 7.20835 19.2743 7.09169 19.1577L3.59169 15.6577C3.35835 15.4243 3.35835 15.0743 3.59169 14.841C3.82502 14.6077 4.17502 14.6077 4.40835 14.841L7.50002 17.9327L10.5917 14.841C10.825 14.6077 11.175 14.6077 11.4084 14.841C11.6417 15.0743 11.6417 15.4243 11.4084 15.6577Z" fill="black"/>
<mask id="mask0_5999_254511" style="mask-type:luminance" maskUnits="userSpaceOnUse" x="3" y="14" width="9" height="6">
<path d="M11.4084 15.6577L7.90835 19.1577C7.79169 19.2743 7.67502 19.3327 7.50002 19.3327C7.32502 19.3327 7.20835 19.2743 7.09169 19.1577L3.59169 15.6577C3.35835 15.4243 3.35835 15.0743 3.59169 14.841C3.82502 14.6077 4.17502 14.6077 4.40835 14.841L7.50002 17.9327L10.5917 14.841C10.825 14.6077 11.175 14.6077 11.4084 14.841C11.6417 15.0743 11.6417 15.4243 11.4084 15.6577Z" fill="white"/>
</mask>
<g mask="url(#mask0_5999_254511)">
<rect x="0.5" y="10" width="14" height="14" fill="#6E6B7B"/>
</g>
<path d="M11.4084 9.15768C11.2917 9.27435 11.175 9.33268 11 9.33268C10.825 9.33268 10.7084 9.27435 10.5917 9.15768L7.50002 6.06602L4.40835 9.15768C4.17502 9.39102 3.82502 9.39102 3.59169 9.15768C3.35835 8.92435 3.35835 8.57435 3.59169 8.34102L7.09169 4.84102C7.32502 4.60768 7.67502 4.60768 7.90835 4.84102L11.4084 8.34102C11.6417 8.57435 11.6417 8.92435 11.4084 9.15768Z" fill="black"/>
<mask id="mask1_5999_254511" style="mask-type:luminance" maskUnits="userSpaceOnUse" x="3" y="4" width="9" height="6">
<path d="M11.4084 9.15768C11.2917 9.27435 11.175 9.33268 11 9.33268C10.825 9.33268 10.7084 9.27435 10.5917 9.15768L7.50002 6.06602L4.40835 9.15768C4.17502 9.39102 3.82502 9.39102 3.59169 9.15768C3.35835 8.92435 3.35835 8.57435 3.59169 8.34102L7.09169 4.84102C7.32502 4.60768 7.67502 4.60768 7.90835 4.84102L11.4084 8.34102C11.6417 8.57435 11.6417 8.92435 11.4084 9.15768Z" fill="white"/>
</mask>
<g mask="url(#mask1_5999_254511)">
<rect x="0.5" width="14" height="14" fill="#BABFC7"/>
</g>
</svg>
