<svg width="18" height="16" viewBox="0 0 18 16" fill="none" xmlns="http://www.w3.org/2000/svg">
<path id="Mask" fill-rule="evenodd" clip-rule="evenodd" d="M16.624 5.65999C16.923 5.73487 17.1472 5.88462 17.222 6.18414C17.2967 6.40877 17.222 6.70829 16.9977 6.85805L13.5595 10.2276L14.3817 15.0198C14.4564 15.3193 14.3069 15.6189 14.0827 15.7686C13.9332 15.8435 13.7837 15.9184 13.6342 15.9184H13.2605L9 13.672L4.73952 15.9184C4.44054 16.0681 4.14156 15.9932 3.91733 15.8435C3.69309 15.6937 3.5436 15.3942 3.61835 15.0947L4.44054 10.3025L1.00227 6.93292C0.778029 6.78317 0.703284 6.48365 0.778029 6.18414C0.92752 5.88462 1.15176 5.65999 1.45074 5.65999L6.15968 4.9112L8.32729 0.643113C8.55153 0.118962 9.44847 0.118962 9.67271 0.643113L11.8403 4.98608L16.624 5.65999ZM11.9898 10.1527C11.9898 9.92807 12.0646 9.70344 12.214 9.4788L14.9049 6.85805L11.2424 6.33389C10.9434 6.33389 10.7191 6.18414 10.6444 5.9595L9 2.66484L7.35561 6.03438C7.20612 6.18414 6.98188 6.40877 6.75764 6.40877L3.09513 6.93292L5.78596 9.4788C5.93545 9.70344 6.01019 9.92807 6.01019 10.1527L5.33749 13.8218L8.62627 12.0996C8.85051 11.9498 9.07475 11.9498 9.29898 12.0996L12.5878 13.8218L11.9898 10.1527Z" fill="#626CC6"/>
</svg>
