<svg width="38" height="39" viewBox="0 0 38 39" fill="none" xmlns="http://www.w3.org/2000/svg">
<g id="Twitter">
<rect id="background" y="0.5" width="38" height="38" rx="6" fill="#1DA1F2" fill-opacity="0.16"/>
<path id="Logo" d="M28.8447 13.394C28.1209 13.7157 27.342 13.9327 26.5247 14.0298C27.3592 13.5303 27.999 12.7389 28.3008 11.7949C27.5202 12.2582 26.6562 12.5943 25.7358 12.7757C24.9992 11.9908 23.9493 11.5 22.7875 11.5C20.557 11.5 18.7485 13.3085 18.7485 15.5394C18.7485 15.8555 18.7841 16.1636 18.8532 16.4598C15.4961 16.2911 12.5194 14.6833 10.5271 12.2394C10.1794 12.8357 9.98035 13.5295 9.98035 14.2704C9.98035 15.6717 10.6933 16.9082 11.7772 17.6324C11.1154 17.6112 10.4923 17.4294 9.94758 17.1268C9.94718 17.1436 9.94718 17.1608 9.94718 17.178C9.94718 19.1347 11.3396 20.7669 13.1876 21.1386C12.8487 21.2305 12.4918 21.2801 12.1233 21.2801C11.8627 21.2801 11.6098 21.2549 11.3632 21.2073C11.8775 22.812 13.3691 23.9802 15.1364 24.0126C13.7539 25.096 12.0126 25.7419 10.1198 25.7419C9.79411 25.7419 9.47238 25.7227 9.15625 25.6851C10.9443 26.8318 13.0673 27.5 15.3482 27.5C22.7783 27.5 26.8408 21.3452 26.8408 16.0074C26.8408 15.8323 26.8372 15.6577 26.8296 15.4842C27.6186 14.9159 28.3036 14.2041 28.8447 13.394Z" fill="#1DA1F2"/>
</g>
</svg>
