<svg width="14" height="15" viewBox="0 0 14 15" fill="none" xmlns="http://www.w3.org/2000/svg">
<path fill-rule="evenodd" clip-rule="evenodd" d="M6.4165 3.05497L5.07484 4.39817C4.8415 4.63177 4.4915 4.63177 4.25817 4.39817C4.02484 4.16457 4.02484 3.81417 4.25817 3.58057L6.5915 1.24458C6.62067 1.21538 6.64984 1.20078 6.679 1.18618C6.70817 1.17158 6.73734 1.15698 6.7665 1.12778C6.9415 1.06938 7.1165 1.06938 7.23317 1.12778C7.2915 1.12778 7.34984 1.18618 7.40817 1.24458L9.7415 3.58057C9.97484 3.81417 9.97484 4.16457 9.7415 4.39817C9.62484 4.51497 9.50817 4.57337 9.33317 4.57337C9.15817 4.57337 9.0415 4.51497 8.92484 4.39817L7.58317 3.05497V9.82934C7.58317 10.1797 7.34984 10.4133 6.99984 10.4133C6.64984 10.4133 6.4165 10.1797 6.4165 9.82934V3.05497ZM12.8332 12.1653V10.4133C12.8332 10.0629 12.5998 9.82934 12.2498 9.82934C11.8998 9.82934 11.6665 10.0629 11.6665 10.4133V12.1653C11.6665 12.5157 11.4332 12.7493 11.0832 12.7493H2.9165C2.5665 12.7493 2.33317 12.5157 2.33317 12.1653V10.4133C2.33317 10.0629 2.09984 9.82934 1.74984 9.82934C1.39984 9.82934 1.1665 10.0629 1.1665 10.4133V12.1653C1.1665 13.1581 1.92484 13.9173 2.9165 13.9173H11.0832C12.0748 13.9173 12.8332 13.1581 12.8332 12.1653Z" fill="black"/>
<mask id="mask0_7937_496864" style="mask-type:luminance" maskUnits="userSpaceOnUse" x="1" y="1" width="12" height="13">
<path fill-rule="evenodd" clip-rule="evenodd" d="M6.4165 3.05497L5.07484 4.39817C4.8415 4.63177 4.4915 4.63177 4.25817 4.39817C4.02484 4.16457 4.02484 3.81417 4.25817 3.58057L6.5915 1.24458C6.62067 1.21538 6.64984 1.20078 6.679 1.18618C6.70817 1.17158 6.73734 1.15698 6.7665 1.12778C6.9415 1.06938 7.1165 1.06938 7.23317 1.12778C7.2915 1.12778 7.34984 1.18618 7.40817 1.24458L9.7415 3.58057C9.97484 3.81417 9.97484 4.16457 9.7415 4.39817C9.62484 4.51497 9.50817 4.57337 9.33317 4.57337C9.15817 4.57337 9.0415 4.51497 8.92484 4.39817L7.58317 3.05497V9.82934C7.58317 10.1797 7.34984 10.4133 6.99984 10.4133C6.64984 10.4133 6.4165 10.1797 6.4165 9.82934V3.05497ZM12.8332 12.1653V10.4133C12.8332 10.0629 12.5998 9.82934 12.2498 9.82934C11.8998 9.82934 11.6665 10.0629 11.6665 10.4133V12.1653C11.6665 12.5157 11.4332 12.7493 11.0832 12.7493H2.9165C2.5665 12.7493 2.33317 12.5157 2.33317 12.1653V10.4133C2.33317 10.0629 2.09984 9.82934 1.74984 9.82934C1.39984 9.82934 1.1665 10.0629 1.1665 10.4133V12.1653C1.1665 13.1581 1.92484 13.9173 2.9165 13.9173H11.0832C12.0748 13.9173 12.8332 13.1581 12.8332 12.1653Z" fill="white"/>
</mask>
<g mask="url(#mask0_7937_496864)">
<rect y="0.5" width="14" height="14" fill="#626CC6"/>
</g>
</svg>
