<svg width="14" height="15" viewBox="0 0 14 15" fill="none" xmlns="http://www.w3.org/2000/svg">
<path id="Mask" fill-rule="evenodd" clip-rule="evenodd" d="M3.25 3.75C3.25 1.65 4.9 0 7 0C9.1 0 10.75 1.65 10.75 3.75C10.75 5.85 9.1 7.5 7 7.5C4.9 7.5 3.25 5.85 3.25 3.75ZM13.75 12.75V14.25C13.75 14.7 13.45 15 13 15C12.55 15 12.25 14.7 12.25 14.25V12.75C12.25 11.475 11.275 10.5 10 10.5H4C2.725 10.5 1.75 11.475 1.75 12.75V14.25C1.75 14.7 1.45 15 1 15C0.55 15 0.25 14.7 0.25 14.25V12.75C0.25 10.65 1.9 9 4 9H10C12.1 9 13.75 10.65 13.75 12.75ZM7 6C5.725 6 4.75 5.025 4.75 3.75C4.75 2.475 5.725 1.5 7 1.5C8.275 1.5 9.25 2.475 9.25 3.75C9.25 5.025 8.275 6 7 6Z" fill="#626CC6"/>
</svg>
